<?xml version="1.0" ?><!DOCTYPE svg  PUBLIC '-//W3C//DTD SVG 1.1//EN'  'http://www.w3.org/Graphics/SVG/1.1/DTD/svg11.dtd'><svg height="128px" id="Layer_1" style="enable-background:new 0 0 128 128;" version="1.1" viewBox="0 0 128 128" width="128px" xml:space="preserve" xmlns="http://www.w3.org/2000/svg" xmlns:xlink="http://www.w3.org/1999/xlink"><style type="text/css">
	.st0{fill:#7059C2;}
	.st1{clip-path:url(#SVGID_2_);}
	.st2{opacity:0.27;fill:#533F8C;}
	.st3{fill:#EF61A3;}
	.st4{fill:#5D4F49;}
	.st5{fill:#463C36;}
	.st6{fill:#76655D;}
	.st7{fill:#FFB202;}
	.st8{fill:#EF901E;}
	.st9{fill:#FFD454;}
	.st10{fill:#F1D2AE;}
	.st11{fill:#FFE6CB;}
	.st12{fill:#DFB98A;}
	.st13{fill:#343633;}
	.st14{fill:#FFF1E7;}
	.st15{opacity:0.9;}
	.st16{fill:#58505B;}
	.st17{fill:#68CDF2;}
	.st18{fill:#00AEDB;}
	.st19{fill:#98DAF4;}
	.st20{fill:#C5834F;}
	.st21{fill:#D59F6B;}
	.st22{fill:#B96E36;}
	.st23{fill:#6D6370;}
	.st24{fill:#4E4751;}
	.st25{fill:#958492;}
</style><g><circle class="st0" cx="64" cy="64" r="64"/><g><defs><circle cx="64" cy="64" id="SVGID_1_" r="64"/></defs><clipPath id="SVGID_2_"><use style="overflow:visible;" xlink:href="#SVGID_1_"/></clipPath><g class="st1"><g><polygon class="st2" points="22.2,97.4 52.5,128 128,128 128,55.6 108,35.6 98.7,38.2 21.2,39.4 38.1,56.3 22.8,58.6 21,72.5       37.4,88.9     "/><polygon class="st2" points="21.1,72.6 76.4,128 128,128 128,76.4 107,55.4 44.6,61.4     "/></g><polygon class="st2" points="36.1,54.3 100.4,119.8 128,91.7 128,55.6 108,35.6 98.7,39.3 81.8,38.2 21.2,39.4    "/></g></g><g><path class="st3" d="M20.2,88.7v5.2c0,2.4,2,4.4,4.4,4.4H29v-14h-4.4C22.2,84.3,20.2,86.2,20.2,88.7z"/><rect class="st4" height="14" width="22.6" x="28.7" y="84.3"/><rect class="st5" height="4.7" width="5.4" x="28.7" y="93.6"/><rect class="st6" height="4.7" width="5.4" x="28.7" y="84.3"/><path class="st7" d="M91.6,86v10.4c0,1-0.8,1.8-1.8,1.8H34v-14h55.8C90.8,84.3,91.6,85.1,91.6,86z"/><path class="st8" d="M91.6,93.6v2.9c0,1-0.8,1.8-1.8,1.8H34v-4.7H91.6z"/><path class="st9" d="M91.6,86v2.9H34v-4.7h55.8C90.8,84.3,91.6,85.1,91.6,86z"/><g><g><path class="st10" d="M91.6,85.9v3.1c-1.7,0-3,1-3,2.3s1.3,2.3,3,2.3v3.1c0,0.8,1,1.3,1.9,1l9.6-4.8v-3l-9.6-4.8      C92.6,84.6,91.6,85.1,91.6,85.9z"/></g><g><path class="st11" d="M88.6,84.3c0,1.3,1.3,4.6,3,4.6l11.5,1.8v-1l-10.3-5.1c-0.7-0.2-1.5-0.4-2.4-0.4c-0.1,0-0.3,0-0.4,0      C89.6,84.3,89.1,84.3,88.6,84.3z"/></g><g><path class="st12" d="M88.6,98.2c0-1.3,1.3-4.6,3-4.6l11.5-1.8v1l-10.3,5.1c-0.7,0.2-1.5,0.4-2.4,0.4c-0.1,0-0.3,0-0.4,0      C89.6,98.2,89.1,98.2,88.6,98.2z"/></g></g><g><path class="st13" d="M103.1,89.7v3l4.1-1.1v0c0.3,0,0.5-0.2,0.5-0.4s-0.2-0.4-0.5-0.4v0C105.9,90.5,104.5,90.1,103.1,89.7z"/></g></g><g><g><path class="st14" d="M20.5,56.8v14.4c0,1.1,0.9,2,2,2h83.1c1.1,0,2-0.9,2-2V56.8c0-1.1-0.9-2-2-2H22.5     C21.4,54.8,20.5,55.7,20.5,56.8z M31.6,64c0,2-1.6,3.6-3.6,3.6S24.3,66,24.3,64s1.6-3.6,3.6-3.6S31.6,62,31.6,64z"/></g><g class="st15"><path class="st16" d="M64,58.4c0.3,0,0.5-0.2,0.5-0.5v-2.1h-1v2.1C63.5,58.2,63.8,58.4,64,58.4z M80,58.4c0.3,0,0.5-0.2,0.5-0.5     v-2.1h-1v2.1C79.5,58.2,79.8,58.4,80,58.4z M72,58.4c0.3,0,0.5-0.2,0.5-0.5v-2.1h-1v2.1C71.5,58.2,71.8,58.4,72,58.4z M76,58.4     c0.3,0,0.5-0.2,0.5-0.5v-2.1h-1v2.1C75.5,58.2,75.8,58.4,76,58.4z M60,58.4c0.3,0,0.5-0.2,0.5-0.5v-2.1h-1v2.1     C59.5,58.2,59.8,58.4,60,58.4z M56,58.4c0.3,0,0.5-0.2,0.5-0.5v-2.1h-1v2.1C55.5,58.2,55.8,58.4,56,58.4z M44,58.4     c0.3,0,0.5-0.2,0.5-0.5v-2.1h-1v2.1C43.5,58.2,43.8,58.4,44,58.4z M48,58.4c0.3,0,0.5-0.2,0.5-0.5v-2.1h-1v2.1     C47.5,58.2,47.8,58.4,48,58.4z M40,58.4c0.3,0,0.5-0.2,0.5-0.5v-2.1h-1v2.1C39.5,58.2,39.8,58.4,40,58.4z M52,61.4     c0.3,0,0.5-0.2,0.5-0.5v-5.1h-1v5.1C51.5,61.2,51.8,61.4,52,61.4z M68,61.4c0.3,0,0.5-0.2,0.5-0.5v-5.1h-1v5.1     C67.5,61.2,67.8,61.4,68,61.4z M84,61.4c0.3,0,0.5-0.2,0.5-0.5v-5.1h-1v5.1C83.5,61.2,83.8,61.4,84,61.4z M88,58.4     c0.3,0,0.5-0.2,0.5-0.5v-2.1h-1v2.1C87.5,58.2,87.8,58.4,88,58.4z M100,61.4c0.3,0,0.5-0.2,0.5-0.5v-5.1h-1v5.1     C99.5,61.2,99.8,61.4,100,61.4z M92,58.4c0.3,0,0.5-0.2,0.5-0.5v-2.1h-1v2.1C91.5,58.2,91.8,58.4,92,58.4z M96,58.4     c0.3,0,0.5-0.2,0.5-0.5v-2.1h-1v2.1C95.5,58.2,95.8,58.4,96,58.4z M35.5,60.9c0,0.3,0.2,0.5,0.5,0.5s0.5-0.2,0.5-0.5v-5.1h-1     V60.9z"/></g><g class="st15"><path class="st16" d="M35.6,64.3L35.6,64.3l-0.7,0.3L34.7,64l1-0.5h0.7v3.7h-0.8V64.3z"/></g><g class="st15"><path class="st16" d="M50.7,67.2v-0.5l0.5-0.4c0.8-0.7,1.2-1.1,1.2-1.6c0-0.3-0.2-0.5-0.6-0.5c-0.3,0-0.6,0.2-0.8,0.3l-0.2-0.6     c0.3-0.2,0.7-0.4,1.2-0.4c0.8,0,1.3,0.5,1.3,1.2c0,0.6-0.4,1.1-1,1.6L52,66.5v0h1.4v0.7H50.7z"/></g><g class="st15"><path class="st16" d="M66.9,66.4c0.2,0.1,0.5,0.2,0.9,0.2c0.4,0,0.7-0.2,0.7-0.5c0-0.4-0.4-0.5-0.7-0.5h-0.4v-0.6h0.3     c0.3,0,0.7-0.1,0.7-0.4c0-0.2-0.2-0.4-0.5-0.4c-0.3,0-0.6,0.1-0.8,0.2l-0.2-0.6c0.2-0.1,0.7-0.3,1.1-0.3c0.8,0,1.2,0.4,1.2,0.9     c0,0.4-0.2,0.7-0.7,0.9v0c0.4,0.1,0.8,0.4,0.8,0.9c0,0.7-0.6,1.1-1.5,1.1c-0.5,0-0.9-0.1-1.1-0.3L66.9,66.4z"/></g><g class="st15"><path class="st16" d="M84.4,67.2v-0.9h-1.6v-0.6l1.4-2.2h1.1v2.2h0.4v0.6h-0.4v0.9H84.4z M84.4,65.7v-0.8c0-0.2,0-0.4,0-0.7h0     c-0.1,0.2-0.2,0.5-0.3,0.7l-0.5,0.8v0H84.4z"/></g><g class="st15"><path class="st16" d="M101.4,64.2H100l-0.1,0.6c0.1,0,0.1,0,0.2,0c0.4,0,0.7,0.1,1,0.3c0.3,0.2,0.4,0.5,0.4,0.9     c0,0.7-0.6,1.3-1.6,1.3c-0.4,0-0.8-0.1-1-0.2l0.2-0.6c0.2,0.1,0.5,0.2,0.8,0.2c0.4,0,0.7-0.2,0.7-0.6c0-0.4-0.3-0.6-1-0.6     c-0.2,0-0.3,0-0.5,0l0.2-1.9h2V64.2z"/></g></g><g><path class="st17" d="M84.4,38.2c0,4.2-0.5,7.6-18.1,7.6s-45.8-3.4-45.8-7.6s28.2-7.6,45.8-7.6S84.4,34.1,84.4,38.2z"/><g><path class="st18" d="M65.6,42.4c11,0,16.2-1,18.7-2.6c-0.4,3.4-2.7,6-18.1,6c-17.5,0-45.3-3.3-45.8-7.5     C31.3,40.8,51.4,42.4,65.6,42.4z"/></g><g><path class="st19" d="M65.6,34.1c11,0,16.2,1,18.7,2.6c-0.4-3.4-2.7-6-18.1-6c-17.5,0-45.3,3.3-45.8,7.5     C31.3,35.7,51.4,34.1,65.6,34.1z"/></g></g><g><path class="st20" d="M99.5,33.5L99.5,33.5L99.5,33.5c0.2,0.2,0.4,0.4,0.5,0.6c0.9,0.9,2.9,2.5,5.1,2c0.7-0.2,1.3-0.4,1.8-0.7    c0.7-0.4,1.4,0.3,1.1,1c-1.4,3.4-5,8.5-13.2,8.5c-3.7,0-6.6-3-6.6-6.6c0-3.7,3-6.6,6.6-6.6C96.7,31.6,98.3,32.3,99.5,33.5z"/></g><g><path class="st21" d="M99.5,33.5L99.5,33.5L99.5,33.5c0.2,0.2,0.4,0.4,0.5,0.6c0.9,0.9,2.9,2.5,5.1,2c0.7-0.2,1.3-0.4,1.8-0.6    c-0.5,0.3-1,0.6-1.7,0.9c-2.3,0.9-4.7-0.5-5.8-1.3c-0.2-0.2-0.4-0.4-0.7-0.5l0,0h0c-1.5-1-3.3-1.5-5.2-1.2    c-2.3,0.4-4.1,1.8-5.2,3.7c0.6-3.1,3.3-5.4,6.5-5.4C96.7,31.6,98.3,32.3,99.5,33.5z"/></g><g><path class="st22" d="M95.4,42.6c6.4,0,10.2-2.7,12.3-5.5c-1.6,3.3-5.2,7.7-12.8,7.7c-3.7,0-6.6-3-6.6-6.6c0-0.4,0-0.8,0.1-1.1    C88.9,40.2,91.9,42.6,95.4,42.6z"/></g><g><rect class="st23" height="6.7" width="5.4" x="83.8" y="34.9"/><rect class="st24" height="1.5" width="5.4" x="83.8" y="40.1"/><rect class="st25" height="1.5" width="5.4" x="83.8" y="34.9"/></g></g></svg>